<svg width="22" height="16" viewBox="0 0 22 16" fill="none" xmlns="http://www.w3.org/2000/svg">
<path d="M11 2.07715C17.4504 2.07715 21 8.10204 21 8.10204C21 8.10204 17.4504 14.1269 11 14.1269C4.54956 14.1269 1 8.10204 1 8.10204C1 8.10204 4.54956 2.07715 11 2.07715Z" stroke="#A6A6A6" stroke-linejoin="round"/>
<path d="M14.5382 7.53296C14.5677 7.7183 14.5831 7.90848 14.5831 8.10212C14.5831 10.0814 12.9787 11.6858 10.9995 11.6858C10.6262 11.6858 10.2666 11.6289 9.92822 11.523" stroke="#A6A6A6" stroke-linejoin="round"/>
<path d="M8.36645 10.5331C7.77632 9.89431 7.41602 9.04045 7.41602 8.10223C7.41602 6.12298 9.02044 4.51855 10.9997 4.51855C12.0013 4.51855 12.9068 4.92934 13.5571 5.59186" stroke="#A6A6A6" stroke-linejoin="round"/>
<path d="M18.2014 1.31055L3.93542 14.6893" stroke="#A6A6A6" stroke-linejoin="round"/>
</svg>
