<svg width="16" height="17" viewBox="0 0 16 17" fill="none" xmlns="http://www.w3.org/2000/svg">
<path fill-rule="evenodd" clip-rule="evenodd" d="M6.00432 2.50221C4.94269 2.50221 3.92454 2.92394 3.17386 3.67462C2.42317 4.42531 2.00144 5.44346 2.00144 6.50509C2.00144 7.56672 2.42317 8.58487 3.17386 9.33556C3.92454 10.0862 4.94269 10.508 6.00432 10.508C7.06596 10.508 8.0841 10.0862 8.83479 9.33556C9.58548 8.58487 10.0072 7.56672 10.0072 6.50509C10.0072 5.44346 9.58548 4.42531 8.83479 3.67462C8.0841 2.92394 7.06596 2.50221 6.00432 2.50221ZM1.13543e-07 6.50509C-0.000120476 5.56011 0.222803 4.62845 0.65064 3.78587C1.07848 2.9433 1.69915 2.2136 2.46217 1.65612C3.22519 1.09865 4.10902 0.729143 5.04178 0.577655C5.97453 0.426167 6.92987 0.496975 7.8301 0.784321C8.73033 1.07167 9.55003 1.56744 10.2225 2.23131C10.895 2.89518 11.4013 3.70841 11.7003 4.60485C11.9992 5.5013 12.0824 6.45565 11.9429 7.39028C11.8035 8.32491 11.4454 9.21344 10.8978 9.9836L15.7183 14.8041C15.9006 14.9928 16.0015 15.2456 15.9992 15.508C15.9969 15.7704 15.8917 16.0214 15.7061 16.2069C15.5206 16.3924 15.2696 16.4977 15.0072 16.5C14.7448 16.5022 14.492 16.4014 14.3033 16.2191L9.48383 11.3996C8.58555 12.0384 7.52877 12.4175 6.42931 12.4955C5.32984 12.5735 4.23012 12.3474 3.25064 11.8419C2.27116 11.3364 1.44973 10.571 0.876355 9.62969C0.302979 8.68834 -0.000214205 7.60732 1.13543e-07 6.50509Z" fill="#ACACAC"/>
</svg>
